<?xml version="1.0" standalone="no"?><!DOCTYPE svg PUBLIC "-//W3C//DTD SVG 1.1//EN" "http://www.w3.org/Graphics/SVG/1.1/DTD/svg11.dtd"><svg class="icon" width="200px" height="200.00px" viewBox="0 0 1024 1024" version="1.1" xmlns="http://www.w3.org/2000/svg"><path d="M438.211765 127.789176C196.126118 127.789176 0 323.975529 0 566.000941c0 241.965176 196.156235 438.211765 438.211765 438.211765 120.982588 0 230.520471-49.091765 309.820235-128.39153L438.211765 565.970824V127.789176z" fill="#31EC7C" /><path d="M438.211765 566.000941L748.001882 875.821176a436.916706 436.916706 0 0 0 128.331294-309.850352H438.211765z" fill="#F83CB6" /><path d="M438.211765 0v127.819294c241.965176 0 438.151529 196.186353 438.151529 438.181647h127.789177C1004.152471 253.379765 750.772706 0 438.211765 0" fill="#F9D11F" /><path d="M438.211765 127.789176v438.211765h438.151529c0-242.025412-196.186353-438.211765-438.181647-438.211765" fill="#FF7E50" /></svg>