<?xml version="1.0" standalone="no"?><!DOCTYPE svg PUBLIC "-//W3C//DTD SVG 1.1//EN" "http://www.w3.org/Graphics/SVG/1.1/DTD/svg11.dtd"><svg class="icon" width="200px" height="200.00px" viewBox="0 0 1024 1024" version="1.1" xmlns="http://www.w3.org/2000/svg"><path d="M649.728 424.476444a7.765333 7.765333 0 0 1-13.255111-5.461333v-78.563555h-28.017778a32.768 32.768 0 0 1-32.796444-32.739556V183.836444a415.061333 415.061333 0 0 0-147.000889-11.548444C229.319111 192 70.912 355.896889 57.799111 555.776a412.615111 412.615111 0 0 0 146.915556 344.576 292.579556 292.579556 0 0 1 194.702222-162.133333 170.24 170.24 0 0 1-97.28-181.361778c11.406222-74.808889 73.272889-133.916444 148.48-142.364445a170.154667 170.154667 0 1 1 90.567111 323.754667 292.465778 292.465778 0 0 1 194.673778 162.104889 412.416 412.416 0 0 0 147.854222-316.728889 411.306667 411.306667 0 0 0-79.189333-243.2h-70.769778l-84.024889 84.053333z" fill="#31EC7C" /><path d="M204.743111 900.352a290.304 290.304 0 0 0-26.254222 120.974222h583.651555c0-43.178667-9.415111-84.110222-26.254222-120.974222a411.619556 411.619556 0 0 1-265.557333 96.654222 411.591111 411.591111 0 0 1-265.585778-96.654222" fill="#F83CB6" /><path d="M541.184 738.247111a170.183111 170.183111 0 0 0 97.28-181.361778c-11.377778-74.808889-73.272889-133.944889-148.48-142.392889a170.126222 170.126222 0 1 0-90.567111 323.754667 292.522667 292.522667 0 0 0-194.673778 162.133333 411.619556 411.619556 0 0 0 265.585778 96.654223c101.091556 0 193.706667-36.380444 265.557333-96.682667a292.522667 292.522667 0 0 0-194.702222-162.104889" fill="#D51782" /><path d="M919.836444 0H608.455111c-18.119111 0-32.796444 14.677333-32.796444 32.739556v151.096888a413.496889 413.496889 0 0 1 228.864 156.615112h115.313777c18.090667 0 32.739556-14.677333 32.739556-32.768V32.739556C952.604444 14.677333 937.927111 0 919.893333 0" fill="#3193FF" /><path d="M575.687111 183.836444v123.847112c0 18.090667 14.677333 32.768 32.768 32.768h28.046222v78.563555c0 6.912 8.362667 10.353778 13.255111 5.461333l84.024889-84.024888h70.769778a413.582222 413.582222 0 0 0-228.864-156.615112" fill="#006CD4" /></svg>