<?xml version="1.0" standalone="no"?><!DOCTYPE svg PUBLIC "-//W3C//DTD SVG 1.1//EN" "http://www.w3.org/Graphics/SVG/1.1/DTD/svg11.dtd"><svg class="icon" width="200px" height="182.37px" viewBox="0 0 1123 1024" version="1.1" xmlns="http://www.w3.org/2000/svg"><path d="M820.257032 1005.072516H121.955097A121.955097 121.955097 0 0 1 0 883.084387V404.645161a121.955097 121.955097 0 0 1 121.955097-121.955096h698.301935a121.955097 121.955097 0 0 1 121.955097 121.955096v478.439226a121.955097 121.955097 0 0 1-121.955097 121.988129" fill="#3193FF" /><path d="M977.292387 722.415484H279.023484a121.955097 121.955097 0 0 1-121.988129-122.021161V122.021161A121.955097 121.955097 0 0 1 279.023484 0h698.301935a121.955097 121.955097 0 0 1 121.955097 121.922065v478.472258a121.955097 121.955097 0 0 1-121.988129 121.955096" fill="#FFD000" /><path d="M820.257032 282.690065H157.035355v317.704258a121.988129 121.988129 0 0 0 121.988129 122.021161h663.188645v-317.770323a121.955097 121.955097 0 0 0-121.955097-121.955096" fill="#006CD4" /><path d="M848.037161 855.865806a54.965677 54.965677 0 1 1-109.931355 0 54.965677 54.965677 0 0 1 109.931355 0M582.127484 512.330323l-127.141161-67.517936a21.074581 21.074581 0 0 0-30.984258 18.630194v122.648774c0 15.954581 16.945548 26.095484 30.984258 18.663226l127.174193-67.517936a14.104774 14.104774 0 0 0 0-24.906322M667.416774 879.417806H133.483355a23.518968 23.518968 0 1 1 0-47.104h533.933419a23.552 23.552 0 0 1 0 47.104" fill="#FFFFFF" /></svg>