<?xml version="1.0" standalone="no"?><!DOCTYPE svg PUBLIC "-//W3C//DTD SVG 1.1//EN" "http://www.w3.org/Graphics/SVG/1.1/DTD/svg11.dtd"><svg class="icon" width="200px" height="200.00px" viewBox="0 0 1024 1024" version="1.1" xmlns="http://www.w3.org/2000/svg"><path d="M693.801514 168.821622a91.634162 91.634162 0 1 1-183.296-0.027676 91.634162 91.634162 0 0 1 183.296 0M452.663351 67.528649a67.500973 67.500973 0 1 1-135.001946 0 67.500973 67.500973 0 0 1 135.001946 0M664.852757 434.037622h62.685405v-96.44973H283.84173v96.44973h62.713081v173.609513h318.297946z" fill="#31EC7C" /><path d="M140.371027 916.313946c-33.819676 33.819676-9.852541 91.606486 37.943351 91.606486h654.806487c47.795892 0 71.735351-57.786811 37.915676-91.606486l-206.183784-206.183784v-102.455351h-318.270271v102.455351l-206.183783 206.183784z" fill="#F83CB6" /></svg>