<?xml version="1.0" standalone="no"?><!DOCTYPE svg PUBLIC "-//W3C//DTD SVG 1.1//EN" "http://www.w3.org/Graphics/SVG/1.1/DTD/svg11.dtd"><svg class="icon" width="200px" height="183.35px" viewBox="0 0 1117 1024" version="1.1" xmlns="http://www.w3.org/2000/svg"><path d="M352.318061 580.328727a206.351515 206.351515 0 0 0-291.84 291.84L206.351515 1018.104242l145.935515-145.935515a206.351515 206.351515 0 0 0 0-291.84" fill="#F9D11F" /><path d="M1034.24 580.328727a206.351515 206.351515 0 0 0-291.87103 291.84l145.904485 145.935515 145.935515-145.935515a206.351515 206.351515 0 0 0 0-291.84" fill="#F83CB6" /><path d="M547.343515 1018.104242l-298.201212-298.201212c-164.708848-164.677818-164.708848-431.693576 0-596.402424 164.677818-164.677818 431.693576-164.677818 596.371394 0 164.708848 164.708848 164.708848 431.724606 0 596.402424l-298.201212 298.201212z" fill="#31EC7C" /><path d="M954.305939 530.928485a206.134303 206.134303 0 0 0-211.936969 49.400242 206.227394 206.227394 0 0 0-22.341818 265.060849l125.486545-125.486546a418.971152 418.971152 0 0 0 108.792242-188.974545M352.318061 580.328727a206.227394 206.227394 0 0 0-211.968-49.400242 419.250424 419.250424 0 0 0 108.792242 188.974545l125.486545 125.486546a206.258424 206.258424 0 0 0-22.341818-265.060849" fill="#2BBB66" /><path d="M458.007273 522.736485l-11.698425-11.698424a126.293333 126.293333 0 0 1 0-178.641455l11.698425-11.729454a126.355394 126.355394 0 0 1 178.641454 0l11.698425 11.729454a126.293333 126.293333 0 0 1 0 178.641455l-11.698425 11.698424a126.355394 126.355394 0 0 1-178.641454 0" fill="#FFFFFF" /></svg>