<?xml version="1.0" standalone="no"?><!DOCTYPE svg PUBLIC "-//W3C//DTD SVG 1.1//EN" "http://www.w3.org/Graphics/SVG/1.1/DTD/svg11.dtd"><svg class="icon" width="200px" height="200.00px" viewBox="0 0 1024 1024" version="1.1" xmlns="http://www.w3.org/2000/svg"><path d="M739.411672 901.766737c0-15.575579 12.611368-28.186947 28.186947-28.186948h109.756632a12.180211 12.180211 0 0 0 8.623157-20.803368l-206.578526-206.578526-82.135579-82.189474a120.562526 120.562526 0 0 0-170.496 0L344.632724 646.197895 138.054198 852.776421a12.180211 12.180211 0 0 0 8.623158 20.803368h109.756631c15.575579 0 28.186947 12.611368 28.186948 28.186948v109.756631c0 10.886737 13.123368 16.330105 20.830316 8.623158l206.578526-206.551579 206.578526 206.578527a12.180211 12.180211 0 0 0 20.803369-8.650106v-109.756631z" fill="#ED2061" /><path d="M852.698408 346.085053c0 191.137684-154.947368 346.085053-346.085052 346.085052-191.110737 0-346.058105-154.947368-346.058105-346.085052S315.502619 0 506.586408 0c191.137684 0 346.085053 154.947368 346.085053 346.085053" fill="#F9D11F" /><path d="M679.211251 646.009263l-81.973895-82.000842a120.535579 120.535579 0 0 0-170.469053 0L344.632724 646.197895l-3.745684 3.745684a344.387368 344.387368 0 0 0 165.753263 42.226526c62.895158 0 121.802105-16.896 172.597895-46.160842" fill="#FF7E50" /><path d="M629.789777 346.085053a123.176421 123.176421 0 1 1-246.352842 0 123.176421 123.176421 0 0 1 246.352842 0" fill="#FFFFFF" /></svg>