<?xml version="1.0" standalone="no"?><!DOCTYPE svg PUBLIC "-//W3C//DTD SVG 1.1//EN" "http://www.w3.org/Graphics/SVG/1.1/DTD/svg11.dtd"><svg class="icon" width="200px" height="200.00px" viewBox="0 0 1024 1024" version="1.1" xmlns="http://www.w3.org/2000/svg"><path d="M438.996293 813.955122a192.512 192.512 0 0 1-192.512-192.512v-131.721366a192.512 192.512 0 0 1 385.024 0v131.721366a192.512 192.512 0 0 1-192.512 192.512" fill="#31EC7C" /><path d="M482.553756 624.090537a40.910049 40.910049 0 1 1-81.820097 0 40.910049 40.910049 0 0 1 81.820097 0" fill="#FFFFFF" /><path d="M753.114537 621.443122a35.465366 35.465366 0 0 0-70.930732 0c0 134.094049-109.093463 243.187512-243.187512 243.187512-134.119024 0-243.162537-109.093463-243.162537-243.187512a35.490341 35.490341 0 0 0-70.955707 0c0 155.947707 114.263415 285.671024 263.467707 309.947317v85.216781h96.256v-84.417561c151.651902-22.12839 268.487805-153.025561 268.487805-310.746537" fill="#31EC7C" /><path d="M817.826341 0h-364.394146a75.526244 75.526244 0 0 0-75.476293 75.501268v296.535415a75.526244 75.526244 0 0 0 75.501269 75.526244h32.967805v94.907317l94.982244-94.907317h236.419121a75.526244 75.526244 0 0 0 75.501269-75.526244V75.501268A75.526244 75.526244 0 0 0 817.826341 0" fill="#F9D11F" /><path d="M438.996293 297.209756c-21.354146 0-41.834146 3.596488-61.040391 10.01522v64.811707a75.526244 75.526244 0 0 0 75.501269 75.526244h32.967805v94.907317l122.105756-94.907317h18.207219c-19.23122-86.040976-95.906341-150.353171-187.741658-150.353171" fill="#2BBB66" /></svg>