<?xml version="1.0" standalone="no"?><!DOCTYPE svg PUBLIC "-//W3C//DTD SVG 1.1//EN" "http://www.w3.org/Graphics/SVG/1.1/DTD/svg11.dtd"><svg class="icon" width="200px" height="200.00px" viewBox="0 0 1024 1024" version="1.1" xmlns="http://www.w3.org/2000/svg"><path d="M800.202105 0H403.698526a84.749474 84.749474 0 0 0-84.776421 84.776421v453.281684a84.749474 84.749474 0 0 0 84.776421 84.776421h37.618527v96.821895l137.701052-96.821895h221.184a84.776421 84.776421 0 0 0 84.776421-84.776421V84.803368A84.776421 84.776421 0 0 0 800.202105 0" fill="#F9D11F" /><path d="M565.436632 1023.730526H234.549895A113.313684 113.313684 0 0 1 121.263158 910.470737V255.191579a113.313684 113.313684 0 0 1 113.313684-113.313684h330.886737a113.313684 113.313684 0 0 1 113.286737 113.313684v655.225263a113.313684 113.313684 0 0 1-113.286737 113.313684" fill="#7162FF" /><path d="M565.436632 141.904842H318.922105v396.153263a84.776421 84.776421 0 0 0 84.803369 84.803369h37.591579v96.794947l137.701052-96.794947h99.759158V255.218526a113.313684 113.313684 0 0 0-113.340631-113.313684" fill="#41398C" /><path d="M506.448842 952.805053h-212.88421a30.423579 30.423579 0 0 1 0-60.820211h212.88421a30.396632 30.396632 0 1 1 0 60.820211" fill="#FFFFFF" /></svg>