<?xml version="1.0" standalone="no"?><!DOCTYPE svg PUBLIC "-//W3C//DTD SVG 1.1//EN" "http://www.w3.org/Graphics/SVG/1.1/DTD/svg11.dtd"><svg class="icon" width="200px" height="136.62px" viewBox="0 0 1499 1024" version="1.1" xmlns="http://www.w3.org/2000/svg"><path d="M961.501661 213.752366a213.752366 213.752366 0 1 1-427.504732 0 213.752366 213.752366 0 0 1 427.504732 0" fill="#3193FF" /><path d="M1369.404807 498.377629a136.662548 136.662548 0 1 1-273.288525 0 136.662548 136.662548 0 0 1 273.288525 0" fill="#F83CB6" /><path d="M1111.475733 712.788258a410.901896 410.901896 0 0 0-363.689868-219.530446 410.938466 410.938466 0 0 0-363.689868 219.567016 262.536909 262.536909 0 0 1 141.489804 232.95168v73.579086h444.436698V945.739938a262.57348 262.57348 0 0 1 141.453234-232.95168" fill="#3193FF" /><path d="M1232.778829 682.983608a261.366665 261.366665 0 0 0-121.303096 29.80465 409.07339 409.07339 0 0 1 47.321739 191.481161v115.049605h263.158601c40.665976 0 73.615657-32.91311 73.615657-73.505946a262.7929 262.7929 0 0 0-262.792901-262.82947" fill="#F83CB6" /><path d="M1111.475733 712.788258a262.57348 262.57348 0 0 0-141.453234 232.95168v73.615656h188.774973v-115.086175c0-69.154102-17.187958-134.28549-47.321739-191.444591" fill="#1565B2" /><path d="M384.095997 712.788258a261.037534 261.037534 0 0 0-121.303097-29.76808A262.75633 262.75633 0 0 0 0 945.739938c0 40.592836 32.91311 73.579086 73.579086 73.579086h263.195172v-115.086175c0-69.154102 17.151387-134.28549 47.321739-191.444591" fill="#31EC7C" /><path d="M384.095997 712.788258a408.92711 408.92711 0 0 0-47.321739 191.481161v115.086175h188.774972V945.739938a262.57348 262.57348 0 0 0-141.453233-232.95168" fill="#1565B2" /><path d="M399.418878 498.377629a136.662548 136.662548 0 1 1-273.288526 0 136.662548 136.662548 0 0 1 273.288526 0" fill="#31EC7C" /></svg>