<?xml version="1.0" standalone="no"?><!DOCTYPE svg PUBLIC "-//W3C//DTD SVG 1.1//EN" "http://www.w3.org/Graphics/SVG/1.1/DTD/svg11.dtd"><svg class="icon" width="200px" height="151.37px" viewBox="0 0 1353 1024" version="1.1" xmlns="http://www.w3.org/2000/svg"><path d="M1243.721143 147.017143h-342.308572l-94.902857-94.939429A178.029714 178.029714 0 0 0 680.704 0h-259.510857c-47.177143 0-92.416 18.761143-125.769143 52.077714L200.521143 147.017143h-121.051429C35.584 147.017143 0 182.601143 0 226.486857v686.445714c0 43.885714 35.584 79.469714 79.469714 79.469715h1164.251429c43.885714 0 79.469714-35.584 79.469714-79.469715V226.486857c0-43.885714-35.584-79.469714-79.469714-79.469714" fill="#A267F8" /><path d="M1243.721143 147.017143h-342.308572l-94.902857-94.939429A178.029714 178.029714 0 0 0 680.704 0h-259.510857c-47.177143 0-92.416 18.761143-125.769143 52.077714L200.521143 147.017143h-121.051429C35.584 147.017143 0 182.601143 0 226.486857v686.445714c0 43.885714 35.584 79.469714 79.469714 79.469715h1164.251429c43.885714 0 79.469714-35.584 79.469714-79.469715V226.486857c0-43.885714-35.584-79.469714-79.469714-79.469714" fill="#A267F8" /><path d="M826.660571 532.955429a275.675429 275.675429 0 1 1-551.387428 0 275.675429 275.675429 0 0 1 551.350857 0" fill="#FFFFFF" /><path d="M1163.593143 275.675429h-140.214857a30.976 30.976 0 0 1-30.976-30.976V49.334857c0-17.078857 13.897143-30.976 30.976-30.976h140.214857c17.078857 0 30.976 13.897143 30.976 30.976v195.364572c0 17.115429-13.897143 30.976-30.976 30.976" fill="#F83CB6" /><path d="M1023.378286 275.675429h140.214857a30.976 30.976 0 0 0 30.976-30.976V147.017143h-202.166857v97.682286c0 17.115429 13.860571 30.976 30.976 30.976" fill="#7E42B9" /></svg>