<?xml version="1.0" standalone="no"?><!DOCTYPE svg PUBLIC "-//W3C//DTD SVG 1.1//EN" "http://www.w3.org/Graphics/SVG/1.1/DTD/svg11.dtd"><svg class="icon" width="200px" height="194.31px" viewBox="0 0 1054 1024" version="1.1" xmlns="http://www.w3.org/2000/svg"><path d="M60.657242 0h567.235765c33.490824 0 60.656941 27.136 60.656941 60.656941v881.001412a60.656941 60.656941 0 0 1-60.656941 60.626823H60.657242A60.656941 60.656941 0 0 1 0.000301 941.658353V60.656941C0.000301 27.136 27.166419 0 60.657242 0" fill="#31EC7C" /><path d="M1051.317007 653.673412c0 192.542118-156.069647 348.611765-348.611765 348.611764-192.542118 0-348.641882-156.069647-348.641882-348.611764 0-192.572235 156.099765-348.611765 348.641882-348.611765 192.542118 0 348.611765 156.039529 348.611765 348.611765M846.517007 156.882824h-287.623529a52.284235 52.284235 0 1 0 0 104.598588h287.623529a52.314353 52.314353 0 0 0 0-104.598588" fill="#4C86C6" /><path d="M688.549948 941.658353V305.392941c-185.976471 7.439059-334.456471 160.466824-334.45647 348.250353 0 174.441412 128.120471 318.945882 295.424 344.606118a60.626824 60.626824 0 0 0 39.03247-56.621177M506.579125 209.167059c0 28.912941 23.431529 52.284235 52.314353 52.284235h129.65647V156.912941h-129.65647c-28.912941 0-52.284235 23.401412-52.284236 52.284235" fill="#2BBB66" /><path d="M850.853948 601.389176H720.113242l-89.449411-89.479529a52.314353 52.314353 0 0 0-73.968942 73.968941l104.809412 104.779294c10.571294 10.541176 24.545882 15.540706 38.430118 15.179294 0.933647 0.060235 1.837176 0.150588 2.800941 0.150589h148.178824a52.314353 52.314353 0 0 0 0-104.598589M228.563125 77.854118l-86.738824 86.708706-42.074353-42.164706L52.706184 169.532235l42.10447 42.104471L144.354184 261.12l133.722352-133.752471z" fill="#FFFFFF" /></svg>