<?xml version="1.0" standalone="no"?><!DOCTYPE svg PUBLIC "-//W3C//DTD SVG 1.1//EN" "http://www.w3.org/Graphics/SVG/1.1/DTD/svg11.dtd"><svg class="icon" width="200px" height="174.45px" viewBox="0 0 1174 1024" version="1.1" xmlns="http://www.w3.org/2000/svg"><path d="M1152.331294 576.150588C1152.331294 257.957647 894.373647 0 576.180706 0 257.957647 0 0.030118 257.957647 0.030118 576.150588c0 3.824941 0.180706 7.559529 0.301176 11.354353h149.865412c-0.090353-3.764706-0.271059-7.529412-0.271059-11.354353 0-235.399529 190.825412-426.224941 426.255059-426.224941A424.96 424.96 0 0 1 877.778824 274.974118l-115.109648 111.917176a264.914824 264.914824 0 0 0-186.48847-76.498823 265.818353 265.818353 0 0 0-265.818353 265.758117c0 3.855059 0.421647 7.559529 0.602353 11.354353h841.095529c0.060235-3.794824 0.301176-7.529412 0.301177-11.354353" fill="#F83CB6" /><path d="M571.331765 1002.315294v-160.587294a265.487059 265.487059 0 0 1-260.397177-254.192941H150.196706c6.023529 228.502588 191.728941 412.190118 421.104941 414.780235" fill="#A267F8" /><path d="M576.150588 310.362353c72.704 0 138.541176 29.244235 186.518588 76.528941l115.109648-111.917176A424.869647 424.869647 0 0 0 576.150588 149.925647c-235.399529 0-426.255059 190.825412-426.255059 426.224941 0 3.824941 0.180706 7.589647 0.271059 11.354353h160.737883c-0.150588-3.794824-0.602353-7.499294-0.602353-11.354353a265.818353 265.818353 0 0 1 265.84847-265.788235" fill="#7E42B9" /><path d="M899.343059 252.988235a58.337882 58.337882 0 0 0-82.522353 0l-170.827294 170.827294a167.664941 167.664941 0 0 0-188.446118 270.968471 167.664941 167.664941 0 1 0 270.968471-188.446118l170.827294-170.827294a58.337882 58.337882 0 0 0 0-82.522353" fill="#FFFFFF" /><path d="M640.361412 575.548235a62.192941 62.192941 0 1 1-124.385883 0 62.192941 62.192941 0 0 1 124.385883 0" fill="#F83CB6" /></svg>