<?xml version="1.0" standalone="no"?><!DOCTYPE svg PUBLIC "-//W3C//DTD SVG 1.1//EN" "http://www.w3.org/Graphics/SVG/1.1/DTD/svg11.dtd"><svg class="icon" width="200px" height="165.96px" viewBox="0 0 1234 1024" version="1.1" xmlns="http://www.w3.org/2000/svg"><path d="M386.590118 949.368471a499.410824 499.410824 0 0 0 178.416941 50.748235v-259.072a515.222588 515.222588 0 0 0-90.714353 16.323765c0.060235 2.529882 0.391529 5.029647 0.391529 7.589647a236.815059 236.815059 0 0 1-88.094117 184.410353M565.007059 259.011765V0a500.495059 500.495059 0 0 0-296.176941 132.487529A518.144 518.144 0 0 0 565.007059 259.011765M108.724706 500.043294c0 21.413647 1.385412 42.496 4.005647 63.247059a235.640471 235.640471 0 0 1 124.626823-35.659294 237.086118 237.086118 0 0 1 213.684706 134.565647 615.966118 615.966118 0 0 1 113.965177-19.395765v-285.515294A616.176941 616.176941 0 0 1 203.986824 205.884235a500.043294 500.043294 0 0 0-95.262118 294.159059M663.009882 0.512v258.078118a518.475294 518.475294 0 0 0 290.063059-126.102589A500.374588 500.374588 0 0 0 663.009882 0.512M984.545882 527.631059a235.821176 235.821176 0 0 1 124.687059 35.629176c2.590118-20.690824 3.975529-41.803294 3.97553-63.247059 0-109.839059-35.388235-211.425882-95.292236-294.128941a615.905882 615.905882 0 0 1-354.906353 150.949647v286.418824c37.014588 3.132235 73.005176 9.607529 107.881412 18.944a237.116235 237.116235 0 0 1 213.684706-134.565647M747.218824 764.988235c0-2.650353 0.301176-5.180235 0.421647-7.740235a516.216471 516.216471 0 0 0-84.630589-15.721412v258.108236c61.409882-6.324706 119.506824-23.792941 172.272942-50.266353a236.784941 236.784941 0 0 1-88.033883-184.410353" fill="#FF7E50" /><path d="M1109.232941 563.260235a500.224 500.224 0 0 1-91.316706 230.972236 617.592471 617.592471 0 0 0-247.024941-132.035765 235.610353 235.610353 0 0 0-23.280941 95.051294 520.523294 520.523294 0 0 1 205.462588 110.351059 502.573176 502.573176 0 0 1-117.76 81.769412 237.327059 237.327059 0 0 0 386.620235-184.410353 237.025882 237.025882 0 0 0-112.700235-201.697883" fill="#F9D11F" /><path d="M1109.232941 563.260235a235.821176 235.821176 0 0 0-124.687059-35.629176 237.025882 237.025882 0 0 0-213.62447 134.565647 617.592471 617.592471 0 0 1 246.994823 132.035765 500.224 500.224 0 0 0 91.316706-230.972236M747.640471 757.248c-0.090353 2.56-0.391529 5.089882-0.39153 7.710118a236.724706 236.724706 0 0 0 88.064 184.410353 503.356235 503.356235 0 0 0 117.76-81.739295 520.192 520.192 0 0 0-205.43247-110.381176" fill="#ED4042" /><path d="M112.730353 563.260235A236.935529 236.935529 0 0 0 0 764.958118a237.327059 237.327059 0 0 0 237.327059 237.327058c56.560941 0 108.423529-19.877647 149.232941-52.916705a501.699765 501.699765 0 0 1-117.76-81.769412 520.192 520.192 0 0 1 205.462588-110.230588 235.911529 235.911529 0 0 0-23.250823-95.141647 617.411765 617.411765 0 0 0-247.085177 132.005647 499.862588 499.862588 0 0 1-91.25647-230.972236" fill="#4C86C6" /><path d="M386.590118 949.368471a236.815059 236.815059 0 0 0 88.094117-184.410353c0-2.56-0.301176-5.059765-0.391529-7.589647a519.439059 519.439059 0 0 0-205.462588 110.230588 502.573176 502.573176 0 0 0 117.76 81.769412M237.327059 527.631059c-45.778824 0-88.395294 13.161412-124.626824 35.629176a499.772235 499.772235 0 0 0 91.286589 230.972236 617.411765 617.411765 0 0 1 247.055058-132.005647 237.116235 237.116235 0 0 0-213.714823-134.625883" fill="#41398C" /></svg>