<?xml version="1.0" standalone="no"?><!DOCTYPE svg PUBLIC "-//W3C//DTD SVG 1.1//EN" "http://www.w3.org/Graphics/SVG/1.1/DTD/svg11.dtd"><svg class="icon" width="200px" height="181.08px" viewBox="0 0 1131 1024" version="1.1" xmlns="http://www.w3.org/2000/svg"><path d="M296.424017 723.941053C146.677491 637.520842 95.396648 446.086737 181.816859 296.394105c86.420211-149.692632 277.827368-200.973474 427.52-114.553263a312.724211 312.724211 0 0 1 156.429474 274.432l139.802947 4.176842c2.506105-159.016421-78.848-314.583579-226.304-399.710316C462.716227-64.269474 185.805069 9.916632 60.742333 226.492632-64.293457 443.068632 9.892648 720.006737 226.468648 845.042526c147.563789 85.153684 323.098947 77.824 459.533474-3.961263l-70.440421-120.778105A312.912842 312.912842 0 0 1 296.424017 723.941053" fill="#3193FF" /><path d="M652.64128 452.958316a199.787789 199.787789 0 1 0-94.127158 169.498947l-102.29221-175.346526 196.419368 5.847579z" fill="#F83CB6" /><path d="M625.882543 552.771368a198.790737 198.790737 0 0 1-67.368421 69.685895l57.047579 97.818948a311.888842 311.888842 0 0 0 108.382316-110.888422 311.215158 311.215158 0 0 0 41.849263-153.088l-113.178947-3.341473a198.979368 198.979368 0 0 1-26.73179 99.813052M905.596227 460.449684a450.506105 450.506105 0 0 1-60.577684 218.839579 450.802526 450.802526 0 0 1-158.989474 161.765053l106.010948 181.840842 74.374737-327.410526 247.18821-228.864-208.006737-6.170948z" fill="#31EC7C" /><path d="M845.018543 679.289263a450.506105 450.506105 0 0 0 60.577684-218.812631l-139.802947-4.176843a311.511579 311.511579 0 0 1-41.876211 153.061053 311.457684 311.457684 0 0 1-108.382315 110.915369l70.467368 120.778105a450.56 450.56 0 0 0 159.016421-161.765053" fill="#1565B2" /><path d="M625.882543 552.771368a198.979368 198.979368 0 0 0 26.758737-99.813052l-196.446316-5.847579 102.319158 175.346526a198.790737 198.790737 0 0 0 67.368421-69.685895" fill="#BE1074" /></svg>