<?xml version="1.0" standalone="no"?><!DOCTYPE svg PUBLIC "-//W3C//DTD SVG 1.1//EN" "http://www.w3.org/Graphics/SVG/1.1/DTD/svg11.dtd"><svg class="icon" width="200px" height="157.90px" viewBox="0 0 1297 1024" version="1.1" xmlns="http://www.w3.org/2000/svg"><path d="M686.148267 561.732267V109.806933h-180.8384c-24.814933 0-48.571733 9.8304-66.116267 27.374934L27.374933 548.9664A93.525333 93.525333 0 0 0 0 615.082667v197.188266a93.525333 93.525333 0 0 0 93.525333 93.525334H137.557333c-0.136533-2.321067-0.341333-4.608-0.341333-6.894934a116.6336 116.6336 0 1 1 233.301333 0c0 2.286933-0.2048 4.573867-0.341333 6.8608h467.285333c-0.136533-2.286933-0.341333-4.573867-0.341333-6.826666a116.667733 116.667733 0 0 1 233.2672 0c0 2.2528-0.2048 4.539733-0.341333 6.826666h2.935466a93.457067 93.457067 0 0 0 93.457067-93.4912v-180.974933H755.712a69.5296 69.5296 0 0 1-69.5296-69.5296" fill="#3193FF" /><path d="M1206.715733 0H755.712a69.5296 69.5296 0 0 0-69.5296 69.5296v40.277333h386.833067a93.457067 93.457067 0 0 1 93.457066 93.457067v428.032h40.2432a69.5296 69.5296 0 0 0 69.5296-69.563733V69.5296A69.5296 69.5296 0 0 0 1206.715733 0" fill="#F9D11F" /><path d="M1072.981333 109.7728H686.148267v451.959467c0 38.4 31.1296 69.5296 69.5296 69.5296h410.760533V203.264a93.525333 93.525333 0 0 0-93.457067-93.4912" fill="#006FD9" /><path d="M253.883733 1015.5008a116.5312 116.5312 0 0 0 116.292267-109.7728H137.557333a116.5312 116.5312 0 0 0 116.292267 109.7728" fill="#F83CB6" /><path d="M253.883733 782.199467a116.6336 116.6336 0 0 0-116.6336 116.667733c0 2.286933 0.2048 4.573867 0.341334 6.8608h232.584533c0.136533-2.286933 0.341333-4.573867 0.341333-6.826667a116.6336 116.6336 0 0 0-116.6336-116.701866" fill="#006FD9" /><path d="M953.7536 1015.5008a116.5312 116.5312 0 0 0 116.292267-109.7728h-232.584534a116.5312 116.5312 0 0 0 116.292267 109.7728" fill="#F83CB6" /><path d="M953.7536 782.199467a116.6336 116.6336 0 0 0-116.6336 116.667733c0 2.286933 0.2048 4.573867 0.341333 6.8608h232.584534c0.136533-2.286933 0.341333-4.573867 0.341333-6.826667a116.6336 116.6336 0 0 0-116.6336-116.701866" fill="#006FD9" /><path d="M525.038933 631.261867H206.336c-45.7728 0-68.676267-55.296-36.317867-87.6544l318.702934-318.702934c32.3584-32.392533 87.6544-9.489067 87.6544 36.283734v318.702933c0 28.3648-22.971733 51.370667-51.336534 51.370667" fill="#FFFFFF" /></svg>